<svg id="Layer_1" data-name="Layer 1" xmlns="http://www.w3.org/2000/svg" viewBox="0 0 19.39 19.47"><title>Untitledddd-1</title><path d="M13.5,3.29l0.18,0A1.73,1.73,0,0,1,15,5q0,3.8,0,7.6a1.72,1.72,0,0,1-1.41,1.7,0.13,0.13,0,0,0-.13.15,1.7,1.7,0,0,1-1.35,1.68,1.64,1.64,0,0,1-.36,0H6.1a1.71,1.71,0,0,1-1.71-1.69q0-3.84,0-7.67A1.72,1.72,0,0,1,6.1,5.13h4.15a1.31,1.31,0,0,1,.94.38q1,0.95,1.91,1.91a1.32,1.32,0,0,1,.38,1q0,2.46,0,4.91v0.16a0.77,0.77,0,0,0,.43-0.24,0.87,0.87,0,0,0,.24-0.63q0-3.76,0-7.52a0.87,0.87,0,0,0-.93-0.91H7.36a0.91,0.91,0,0,0-.74.32,0.14,0.14,0,0,1-.09.05H5.64A1.73,1.73,0,0,1,7,3.31l0.08,0H13.5ZM5.24,10.65q0,1.86,0,3.73a0.88,0.88,0,0,0,.95.94h5.47a0.88,0.88,0,0,0,1-1q0-2.95,0-5.9V8.37a0.14,0.14,0,0,0-.16-0.16H11.56a1.23,1.23,0,0,1-1.24-1.26c0-.27,0-0.54,0-0.81A0.12,0.12,0,0,0,10.17,6h-4a1,1,0,0,0-.24,0,0.88,0.88,0,0,0-.65.91Q5.24,8.79,5.24,10.65Z" fill="#fff"/><path d="M8.93,12.71h2.23a0.52,0.52,0,0,1,.56.41,0.5,0.5,0,0,1-.39.59l-0.19,0H6.72a0.52,0.52,0,0,1-.59-0.51,0.51,0.51,0,0,1,.54-0.51H8.93Z" fill="#fff"/><path d="M8.93,11.53H6.65a0.5,0.5,0,0,1-.45-0.76,0.47,0.47,0,0,1,.42-0.24h4.62a0.5,0.5,0,0,1,.49.5,0.51,0.51,0,0,1-.5.51H8.93Z" fill="#fff"/><path d="M8,9.33H6.66A0.49,0.49,0,0,1,6.18,9a0.48,0.48,0,0,1,.08-0.53,0.5,0.5,0,0,1,.4-0.18H9.27a0.51,0.51,0,1,1,0,1H8Z" fill="#fff"/></svg>