<svg id="Layer_1" data-name="Layer 1" xmlns="http://www.w3.org/2000/svg" viewBox="0 0 19.39 19.47"><title>Untitledddd-1</title><path d="M14.4,7.15c0,0.06,0,.1,0,0.15q0,3.92,0,7.83a1.4,1.4,0,0,1-1.07,1.39,1.48,1.48,0,0,1-.35,0H6.39A1.41,1.41,0,0,1,5,15.14q0-3.33,0-6.65,0-.6,0-1.21S5,7.2,5,7.15H14.4Z" fill="none" stroke="#fff" stroke-miterlimit="10" stroke-width="0.95"/><path d="M7.81,4.79c0-.3,0-0.57,0-0.84a1,1,0,0,1,1-1h1.75a0.94,0.94,0,0,1,1,1c0,0.3,0,.6,0,0.92H13.3a1.54,1.54,0,0,1,1.57,1.75,0.28,0.28,0,0,1-.13.13,0.17,0.17,0,0,1-.09,0h-10c-0.19,0-.2,0-0.2-0.2a1.52,1.52,0,0,1,1-1.59,1.89,1.89,0,0,1,.53-0.08H7.81Z" fill="none" stroke="#fff" stroke-miterlimit="10" stroke-width="0.95"/><path d="M6.85,11.86h0q0,1.4,0,2.8a0.48,0.48,0,1,0,1,0q0-2.8,0-5.6a0.62,0.62,0,0,0,0-.17A0.48,0.48,0,0,0,6.85,9Q6.85,10.45,6.85,11.86Z" fill="#fff"/><path d="M9.21,11.86h0q0,1.4,0,2.8a0.48,0.48,0,1,0,1,0q0-2.8,0-5.6a0.62,0.62,0,0,0,0-.17A0.48,0.48,0,0,0,9.21,9Q9.21,10.45,9.21,11.86Z" fill="#fff"/><path d="M11.57,11.85h0q0,1.41,0,2.82a0.48,0.48,0,1,0,1,0q0-2.8,0-5.6a0.63,0.63,0,0,0,0-.17,0.48,0.48,0,0,0-.94.14Q11.57,10.44,11.57,11.85Z" fill="#fff"/><path d="M8.74,4.78h1.9c0-.27,0-0.53,0-0.79a0.15,0.15,0,0,0-.16-0.16H8.9A0.15,0.15,0,0,0,8.74,4C8.74,4.25,8.74,4.51,8.74,4.78Z" fill="#fff"/></svg>