<svg id="Layer_1" data-name="Layer 1" xmlns="http://www.w3.org/2000/svg" viewBox="0 0 19.39 19.47"><title>Untitledddd-1</title><path d="M14.63,5.35a1,1,0,0,0-.77-1.07,1.1,1.1,0,0,0-.28,0H6.94a1.13,1.13,0,0,0-.28,0,1,1,0,0,0-.77,1.07q0,2.21,0,4.42c0,1.47,0,3.28,0,4.75A1.34,1.34,0,0,0,7,16h6.49a1.34,1.34,0,0,0,1.12-1.45c0-1.47,0-3.13,0-4.61S14.63,6.82,14.63,5.35Z" fill="none" stroke="#fff" stroke-miterlimit="10"/><path d="M9.83,2.81h-4a1.35,1.35,0,0,0-.34,0,1.25,1.25,0,0,0-.93,1.29q0,2.65,0,5.31" fill="none" stroke="#fff" stroke-linecap="round" stroke-linejoin="round" stroke-width="0.95"/></svg>