<svg id="Layer_1" data-name="Layer 1" xmlns="http://www.w3.org/2000/svg" viewBox="0 0 100.57 113.02"><defs><style>.cls-1{fill:#fff;}.cls-2,.cls-3,.cls-4{fill:none;stroke:#fff;}.cls-2,.cls-3{stroke-miterlimit:10;}.cls-2,.cls-4{stroke-width:0.95px;}.cls-4{stroke-linecap:round;stroke-linejoin:round;}</style></defs><title>Untitled-2</title><path class="cls-1" d="M677.11,278.29l0.18,0a1.73,1.73,0,0,1,1.33,1.69q0,3.8,0,7.6a1.72,1.72,0,0,1-1.41,1.7,0.13,0.13,0,0,0-.13.15,1.7,1.7,0,0,1-1.35,1.68,1.64,1.64,0,0,1-.36,0h-5.67a1.71,1.71,0,0,1-1.71-1.69q0-3.84,0-7.67a1.72,1.72,0,0,1,1.71-1.69h4.15a1.31,1.31,0,0,1,.94.38q1,0.95,1.91,1.91a1.32,1.32,0,0,1,.38,1q0,2.46,0,4.91v0.16a0.77,0.77,0,0,0,.43-0.24,0.87,0.87,0,0,0,.24-0.63q0-3.76,0-7.52a0.87,0.87,0,0,0-.93-0.91H671a0.91,0.91,0,0,0-.74.32,0.14,0.14,0,0,1-.09.05h-0.89a1.73,1.73,0,0,1,1.35-1.21l0.08,0h6.43Zm-8.26,7.37q0,1.86,0,3.73a0.88,0.88,0,0,0,.95.94h5.47a0.88,0.88,0,0,0,1-1q0-2.95,0-5.9v-0.1a0.14,0.14,0,0,0-.16-0.16h-0.89a1.23,1.23,0,0,1-1.24-1.26c0-.27,0-0.54,0-0.81a0.12,0.12,0,0,0-.15-0.15h-4a1,1,0,0,0-.24,0,0.88,0.88,0,0,0-.65.91Q668.85,283.79,668.85,285.65Z" transform="translate(-596.18 -251.98)"/><path class="cls-1" d="M672.54,287.71h2.23a0.52,0.52,0,0,1,.56.41,0.5,0.5,0,0,1-.39.59l-0.19,0h-4.41a0.52,0.52,0,0,1-.59-0.51,0.51,0.51,0,0,1,.54-0.51h2.25Z" transform="translate(-596.18 -251.98)"/><path class="cls-1" d="M672.55,286.53h-2.28a0.5,0.5,0,0,1-.45-0.76,0.47,0.47,0,0,1,.42-0.24h4.62a0.5,0.5,0,0,1,.49.5,0.51,0.51,0,0,1-.5.51h-2.29Z" transform="translate(-596.18 -251.98)"/><path class="cls-1" d="M671.58,284.33h-1.31a0.49,0.49,0,0,1-.48-0.3,0.48,0.48,0,0,1,.08-0.53,0.5,0.5,0,0,1,.4-0.18h2.62a0.51,0.51,0,1,1,0,1h-1.3Z" transform="translate(-596.18 -251.98)"/><path class="cls-2" d="M606.55,256.71c0,0.06,0,.1,0,0.15q0,3.92,0,7.83a1.4,1.4,0,0,1-1.07,1.39,1.48,1.48,0,0,1-.35,0h-6.59a1.41,1.41,0,0,1-1.41-1.44q0-3.33,0-6.65,0-.6,0-1.21s0-.08,0-0.12h9.42Z" transform="translate(-596.18 -251.98)"/><path class="cls-2" d="M600,254.34c0-.3,0-0.57,0-0.84a1,1,0,0,1,1-1h1.75a0.94,0.94,0,0,1,1,1c0,0.3,0,.6,0,0.92h1.73a1.54,1.54,0,0,1,1.57,1.75,0.28,0.28,0,0,1-.13.13,0.17,0.17,0,0,1-.09,0h-10c-0.19,0-.2,0-0.2-0.2a1.52,1.52,0,0,1,1-1.59,1.89,1.89,0,0,1,.53-0.08H600Z" transform="translate(-596.18 -251.98)"/><path class="cls-1" d="M599,261.42h0q0,1.4,0,2.8a0.48,0.48,0,1,0,1,0q0-2.8,0-5.6a0.62,0.62,0,0,0,0-.17,0.48,0.48,0,0,0-.93.14Q599,260,599,261.42Z" transform="translate(-596.18 -251.98)"/><path class="cls-1" d="M601.36,261.42h0q0,1.4,0,2.8a0.48,0.48,0,1,0,1,0q0-2.8,0-5.6a0.62,0.62,0,0,0,0-.17,0.48,0.48,0,0,0-.93.14Q601.36,260,601.36,261.42Z" transform="translate(-596.18 -251.98)"/><path class="cls-1" d="M603.72,261.4h0q0,1.41,0,2.82a0.48,0.48,0,1,0,1,0q0-2.8,0-5.6a0.63,0.63,0,0,0,0-.17,0.48,0.48,0,0,0-.94.14Q603.72,260,603.72,261.4Z" transform="translate(-596.18 -251.98)"/><path class="cls-1" d="M600.89,254.33h1.9c0-.27,0-0.53,0-0.79a0.15,0.15,0,0,0-.16-0.16h-1.58a0.15,0.15,0,0,0-.16.16C600.89,253.8,600.89,254.06,600.89,254.33Z" transform="translate(-596.18 -251.98)"/><path class="cls-3" d="M696.24,353.88a1,1,0,0,0-.77-1.07,1.1,1.1,0,0,0-.28,0h-6.64a1.13,1.13,0,0,0-.28,0,1,1,0,0,0-.77,1.07q0,2.21,0,4.42c0,1.47,0,3.28,0,4.75a1.34,1.34,0,0,0,1.12,1.45h6.49a1.34,1.34,0,0,0,1.12-1.45c0-1.47,0-3.13,0-4.61S696.24,355.35,696.24,353.88Z" transform="translate(-596.18 -251.98)"/><path class="cls-4" d="M691.45,351.34h-4a1.35,1.35,0,0,0-.34,0,1.25,1.25,0,0,0-.93,1.29q0,2.65,0,5.31" transform="translate(-596.18 -251.98)"/></svg>