<?xml version="1.0" encoding="utf-8"?>
<!-- Generator: Adobe Illustrator 17.0.0, SVG Export Plug-In . SVG Version: 6.00 Build 0)  -->
<!DOCTYPE svg PUBLIC "-//W3C//DTD SVG 1.1//EN" "http://www.w3.org/Graphics/SVG/1.1/DTD/svg11.dtd">
<svg version="1.1" fill="#FFFFFF" id="Layer_1" xmlns="http://www.w3.org/2000/svg" xmlns:xlink="http://www.w3.org/1999/xlink" x="0px" y="0px" width="100%" height="100%" viewBox="0 0 50 162" enable-background="new 0 0 261.6 163" xml:space="preserve" fit="" preserveAspectRatio="xMidYMid meet" focusable="false">
	<rect fill-opacity="0.95" height="162px" width="162px" x="-57px"></rect>
	<g>
		<g>
			<g>
				<path  d="M31.909,1.184C32.215,0.334,32.829,0,33.829,0h0.154c1.769,0,2.463,0.944,1.851,2.567l-5.968,16.636
					c-0.459,1.314-1.381,1.91-2.689,1.912l-0.63-0.014l-0.007-3.706l0.014,0.106L31.909,1.184z"></path>
				<path  d="M24.828,21.089c-1.385,0.003-2.309-0.626-2.773-1.938L16.255,2.634C15.713,1.014,16.48,0,18.249,0h0.154
					c1,0,1.616,0.343,1.926,1.269l5.247,16.174l0.007,3.671L24.828,21.089z"></path>
			</g>
			<g>
				<path  d="M19.584,72.828c-0.306,0.85-0.92,1.172-1.92,1.172H17.51c-1.769,0-2.463-0.932-1.851-2.555l5.968-16.598
					C22.086,53.533,23.007,53,24.315,53h0.63l0.007,3.667l-0.014-0.132L19.584,72.828z"></path>
				<path  d="M26.665,52.934c1.385-0.003,2.309,0.626,2.773,1.938l5.801,16.506C35.78,72.998,35.013,74,33.244,74
					H33.09c-1,0-1.616-0.331-1.926-1.257l-5.247-16.168l-0.007-3.668L26.665,52.934z"></path>
			</g>
			<g>
				<path  d="M2.719,27.336c-0.876-0.21-1.591,0.055-2.142,0.893l-0.085,0.129c-0.975,1.482-0.466,2.652,1.221,3.03
					l17.177,4.17c1.346,0.337,2.374-0.092,3.095-1.187l0.347-0.527l-3.074-2.038l0.033,0.039L2.719,27.336z"></path>
				<path  d="M23.279,32.402c0.763-1.16,0.748-2.28-0.089-3.39l-10.649-14c-1.051-1.345-2.402-1.315-3.378,0.167
					l-0.085,0.129c-0.551,0.838-0.514,1.603,0.087,2.371l10.623,13.318l3.074,2.038L23.279,32.402z"></path>
			</g>
			<g>
				<path  d="M47.82,27.336c0.876-0.21,1.591,0.055,2.142,0.893l0.085,0.129c0.975,1.482,0.466,2.652-1.221,3.03
					l-17.177,4.17c-1.346,0.337-2.374-0.092-3.095-1.187l-0.347-0.527l3.074-2.038l-0.033,0.039L47.82,27.336z"></path>
				<path  d="M27.26,32.402c-0.763-1.16-0.748-2.28,0.089-3.39l10.649-14c1.051-1.345,2.402-1.315,3.378,0.167
					l0.085,0.129c0.551,0.838,0.514,1.603-0.087,2.371L30.751,30.997l-3.074,2.038L27.26,32.402z"></path>
			</g>
			<g>
				<path  d="M2.719,46.914c-0.876,0.21-1.591-0.055-2.142-0.893l-0.085-0.129c-0.975-1.482-0.466-2.652,1.221-3.03
					l17.177-4.17c1.346-0.337,2.374,0.092,3.095,1.187l0.347,0.527l-3.074,2.038l0.033-0.039L2.719,46.914z"></path>
				<path  d="M23.279,41.847c0.763,1.16,0.748,2.28-0.089,3.39l-10.649,14c-1.051,1.345-2.402,1.315-3.378-0.167
					l-0.085-0.129c-0.551-0.838-0.514-1.603,0.087-2.371l10.623-13.318l3.074-2.038L23.279,41.847z"></path>
			</g>
			<g>
				<path  d="M47.82,46.914c0.876,0.21,1.591-0.055,2.142-0.893l0.085-0.129c0.975-1.482,0.466-2.652-1.221-3.03
					l-17.177-4.17c-1.346-0.337-2.374,0.092-3.095,1.187l-0.347,0.527l3.074,2.038l-0.033-0.039L47.82,46.914z"></path>
				<path  d="M27.26,41.847c-0.763,1.16-0.748,2.28,0.089,3.39l10.649,14c1.051,1.345,2.402,1.315,3.378-0.167
					l0.085-0.129c0.551-0.838,0.514-1.603-0.087-2.371L30.751,43.253l-3.074-2.038L27.26,41.847z"></path>
			</g>
		</g>
	</g>
	<g>
		<g>
			<g>
				<path fill="#FFFFFF" d="M31.909,89.26c0.306-0.85,0.92-1.26,1.92-1.26h0.154c1.769,0,2.463,1.02,1.851,2.642l-5.968,16.674
					c-0.459,1.314-1.381,1.929-2.689,1.931l-0.63-0.005l-0.007-3.701l0.014,0.071L31.909,89.26z"/>
				<path fill="#FFFFFF" d="M24.828,109.24c-1.385,0.003-2.309-0.626-2.773-1.938L16.255,90.71C15.713,89.089,16.48,88,18.249,88
					h0.154c1,0,1.616,0.418,1.926,1.344l5.247,16.212l0.007,3.69L24.828,109.24z"/>
			</g>
			<g>
				<path fill="#FFFFFF" d="M19.584,161.403c-0.306,0.85-0.92,1.597-1.92,1.597H17.51c-1.769,0-2.463-1.357-1.851-2.979
					l5.968-16.886c0.459-1.314,1.381-2.134,2.689-2.134h0.63l0.007,3.743l-0.014,0.118L19.584,161.403z"/>
				<path fill="#FFFFFF" d="M26.665,141.086c1.385-0.003,2.309,0.626,2.773,1.938l5.801,16.93c0.542,1.62-0.225,3.047-1.995,3.047
					H33.09c-1,0-1.616-0.755-1.926-1.681l-5.247-16.381l-0.007-3.775L26.665,141.086z"/>
			</g>
			<g>
				<path fill="#FFFFFF" d="M2.719,115.487c-0.876-0.21-1.591,0.055-2.142,0.893l-0.085,0.129c-0.975,1.482-0.466,2.652,1.221,3.03
					l17.177,4.17c1.346,0.337,2.374-0.092,3.095-1.187l0.347-0.527l-3.074-2.038l0.033,0.039L2.719,115.487z"/>
				<path fill="#FFFFFF" d="M23.279,120.554c0.763-1.16,0.748-2.28-0.089-3.39l-10.649-14c-1.051-1.345-2.402-1.315-3.378,0.167
					l-0.085,0.129c-0.551,0.838-0.514,1.603,0.087,2.371l10.623,13.318l3.074,2.038L23.279,120.554z"/>
			</g>
			<g>
				<path fill="#FFFFFF" d="M47.82,115.487c0.876-0.21,1.591,0.055,2.142,0.893l0.085,0.129c0.975,1.482,0.466,2.652-1.221,3.03
					l-17.177,4.17c-1.346,0.337-2.374-0.092-3.095-1.187l-0.347-0.527l3.074-2.038l-0.033,0.039L47.82,115.487z"/>
				<path fill="#FFFFFF" d="M27.26,120.554c-0.763-1.16-0.748-2.28,0.089-3.39l10.649-14c1.051-1.345,2.402-1.315,3.378,0.167
					l0.085,0.129c0.551,0.838,0.514,1.603-0.087,2.371l-10.623,13.318l-3.074,2.038L27.26,120.554z"/>
			</g>
			<g>
				<path fill="#FFFFFF" d="M2.719,135.065c-0.876,0.21-1.591-0.055-2.142-0.893l-0.085-0.129c-0.975-1.482-0.466-2.652,1.221-3.03
					l17.177-4.17c1.346-0.337,2.374,0.092,3.095,1.187l0.347,0.527l-3.074,2.038l0.033-0.039L2.719,135.065z"/>
				<path fill="#FFFFFF" d="M23.279,129.998c0.763,1.16,0.748,2.28-0.089,3.39l-10.649,14c-1.051,1.345-2.402,1.315-3.378-0.167
					l-0.085-0.129c-0.551-0.838-0.514-1.603,0.087-2.371l10.623-13.318l3.074-2.038L23.279,129.998z"/>
			</g>
			<g>
				<path fill="#FFFFFF" d="M47.82,135.065c0.876,0.21,1.591-0.055,2.142-0.893l0.085-0.129c0.975-1.482,0.466-2.652-1.221-3.03
					l-17.177-4.17c-1.346-0.337-2.374,0.092-3.095,1.187l-0.347,0.527l3.074,2.038l-0.033-0.039L47.82,135.065z"/>
				<path fill="#FFFFFF" d="M27.26,129.998c-0.763,1.16-0.748,2.28,0.089,3.39l10.649,14c1.051,1.345,2.402,1.315,3.378-0.167
					l0.085-0.129c0.551-0.838,0.514-1.603-0.087-2.371l-10.623-13.318l-3.074-2.038L27.26,129.998z"/>
			</g>
		</g>
	</g>
</svg>