<?xml version="1.0"?>
<svg xmlns="http://www.w3.org/2000/svg" height="512px" viewBox="0 -52 480 480" width="512px" class=""><g><path d="m452.695312 152h3.304688c13.253906 0 24-10.746094 24-24s-10.746094-24-24-24h-24c-.066406-57.410156-46.589844-103.9335938-104-104h-176c-57.410156.0664062-103.933594 46.589844-104 104h-24c-13.253906 0-24 10.746094-24 24s10.746094 24 24 24h3.304688c-16.90625 10.089844-27.273438 28.3125-27.304688 48v72c.0273438 22.082031 17.917969 39.972656 40 40h8v24c.027344 22.082031 17.917969 39.972656 40 40h32c22.082031-.027344 39.972656-17.917969 40-40v-24h160v24c.027344 22.082031 17.917969 39.972656 40 40h32c22.082031-.027344 39.972656-17.917969 40-40v-24h8c22.082031-.027344 39.972656-17.917969 40-40v-72c-.03125-19.6875-10.398438-37.910156-27.304688-48zm3.304688-32c4.417969 0 8 3.582031 8 8s-3.582031 8-8 8h-24v-16zm-392-16c.058594-48.578125 39.421875-87.941406 88-88h176c48.578125.058594 87.941406 39.421875 88 88v40h-352zm-48 24c0-4.417969 3.582031-8 8-8h24v16h-24c-4.417969 0-8-3.582031-8-8zm128 208c0 13.253906-10.746094 24-24 24h-32c-13.253906 0-24-10.746094-24-24v-24h80zm272 0c0 13.253906-10.746094 24-24 24h-32c-13.253906 0-24-10.746094-24-24v-24h80zm48-64c0 13.253906-10.746094 24-24 24h-400c-13.253906 0-24-10.746094-24-24v-72c.027344-22.082031 17.917969-39.972656 40-40h368c22.082031.027344 39.972656 17.917969 40 40zm0 0" data-original="#000000" class="active-path" data-old_color="#34bfe7" fill="#34bfe7"/><path d="m80 136h320c4.417969 0 8-3.582031 8-8v-24c-.046875-44.164062-35.835938-79.953125-80-80h-176c-44.164062.046875-79.953125 35.835938-80 80v24c0 4.417969 3.582031 8 8 8zm8-32c.039062-35.328125 28.671875-63.960938 64-64h176c35.328125.039062 63.960938 28.671875 64 64v16h-304zm0 0" data-original="#000000" class="active-path" data-old_color="#34bfe7" fill="#34bfe7"/><path d="m96 232h-32c-13.253906 0-24 10.746094-24 24s10.746094 24 24 24h32c13.253906 0 24-10.746094 24-24s-10.746094-24-24-24zm0 32h-32c-4.417969 0-8-3.582031-8-8s3.582031-8 8-8h32c4.417969 0 8 3.582031 8 8s-3.582031 8-8 8zm0 0" data-original="#000000" class="active-path" data-old_color="#34bfe7" fill="#34bfe7"/><path d="m416 232h-32c-13.253906 0-24 10.746094-24 24s10.746094 24 24 24h32c13.253906 0 24-10.746094 24-24s-10.746094-24-24-24zm0 32h-32c-4.417969 0-8-3.582031-8-8s3.582031-8 8-8h32c4.417969 0 8 3.582031 8 8s-3.582031 8-8 8zm0 0" data-original="#000000" class="active-path" data-old_color="#34bfe7" fill="#34bfe7"/><path d="m288 216h-96c-30.914062.035156-55.964844 25.085938-56 56 0 4.417969 3.582031 8 8 8h192c4.417969 0 8-3.582031 8-8-.035156-30.914062-25.085938-55.964844-56-56zm-88 16h32v32h-32zm48 0h32v32h-32zm-64 .878906v31.121094h-31.199219c3.246094-15.675781 15.515625-27.914062 31.199219-31.121094zm112 31.121094v-31.121094c15.683594 3.207032 27.953125 15.445313 31.199219 31.121094zm0 0" data-original="#000000" class="active-path" data-old_color="#34bfe7" fill="#34bfe7"/></g> </svg>
